<mxfile host="Electron" agent="Mozilla/5.0 (Windows NT 10.0; Win64; x64) AppleWebKit/537.36 (KHTML, like Gecko) draw.io/26.1.1 Chrome/132.0.6834.210 Electron/34.3.3 Safari/537.36" version="26.1.1" pages="2">
  <diagram name="bejelentkezes" id="0G0G3cA42O372oxQp3KD">
    <mxGraphModel dx="1434" dy="694" grid="1" gridSize="10" guides="1" tooltips="1" connect="1" arrows="1" fold="1" page="1" pageScale="1" pageWidth="827" pageHeight="1169" math="0" shadow="0">
      <root>
        <mxCell id="0" />
        <mxCell id="1" parent="0" />
        <mxCell id="zTduDgrtgKTGrg6cxjJL-3" value="" style="rounded=0;whiteSpace=wrap;html=1;" vertex="1" parent="1">
          <mxGeometry x="90" y="50" width="630" height="400" as="geometry" />
        </mxCell>
        <mxCell id="zTduDgrtgKTGrg6cxjJL-2" value="&lt;font style=&quot;font-size: 32px;&quot;&gt;SkiRent&lt;/font&gt;" style="text;html=1;align=center;verticalAlign=middle;whiteSpace=wrap;rounded=0;" vertex="1" parent="1">
          <mxGeometry x="375" y="130" width="60" height="30" as="geometry" />
        </mxCell>
        <mxCell id="zTduDgrtgKTGrg6cxjJL-4" value="" style="rounded=0;whiteSpace=wrap;html=1;" vertex="1" parent="1">
          <mxGeometry x="315" y="230" width="180" height="20" as="geometry" />
        </mxCell>
        <mxCell id="zTduDgrtgKTGrg6cxjJL-5" value="" style="rounded=0;whiteSpace=wrap;html=1;" vertex="1" parent="1">
          <mxGeometry x="315" y="290" width="180" height="20" as="geometry" />
        </mxCell>
        <mxCell id="zTduDgrtgKTGrg6cxjJL-6" value="Email" style="text;html=1;align=center;verticalAlign=middle;whiteSpace=wrap;rounded=0;" vertex="1" parent="1">
          <mxGeometry x="310" y="200" width="60" height="30" as="geometry" />
        </mxCell>
        <mxCell id="zTduDgrtgKTGrg6cxjJL-7" value="Jelszó" style="text;html=1;align=center;verticalAlign=middle;whiteSpace=wrap;rounded=0;" vertex="1" parent="1">
          <mxGeometry x="315" y="260" width="60" height="30" as="geometry" />
        </mxCell>
        <mxCell id="zTduDgrtgKTGrg6cxjJL-8" value="Bejelentkezés" style="rounded=0;whiteSpace=wrap;html=1;" vertex="1" parent="1">
          <mxGeometry x="337" y="350" width="136" height="30" as="geometry" />
        </mxCell>
      </root>
    </mxGraphModel>
  </diagram>
  <diagram name="admin" id="g-LnBgWrkszanxjkcYBW">
    <mxGraphModel dx="1434" dy="694" grid="1" gridSize="10" guides="1" tooltips="1" connect="1" arrows="1" fold="1" page="1" pageScale="1" pageWidth="827" pageHeight="1169" math="0" shadow="0">
      <root>
        <mxCell id="qWO7SP7HksCYpSg3U8y8-0" />
        <mxCell id="qWO7SP7HksCYpSg3U8y8-1" parent="qWO7SP7HksCYpSg3U8y8-0" />
        <mxCell id="qWO7SP7HksCYpSg3U8y8-2" value="" style="rounded=0;whiteSpace=wrap;html=1;movable=0;resizable=0;rotatable=0;deletable=0;editable=0;locked=1;connectable=0;" vertex="1" parent="qWO7SP7HksCYpSg3U8y8-1">
          <mxGeometry x="90" y="50" width="630" height="400" as="geometry" />
        </mxCell>
        <mxCell id="qWO7SP7HksCYpSg3U8y8-3" value="&lt;font style=&quot;font-size: 32px;&quot;&gt;SkiRent&lt;/font&gt;" style="text;html=1;align=center;verticalAlign=middle;whiteSpace=wrap;rounded=0;" vertex="1" parent="qWO7SP7HksCYpSg3U8y8-1">
          <mxGeometry x="140" y="70" width="60" height="30" as="geometry" />
        </mxCell>
        <mxCell id="qWO7SP7HksCYpSg3U8y8-8" value="Frissítés" style="rounded=0;whiteSpace=wrap;html=1;" vertex="1" parent="qWO7SP7HksCYpSg3U8y8-1">
          <mxGeometry x="270" y="100" width="86" height="30" as="geometry" />
        </mxCell>
        <mxCell id="z-UjJyRlYumc9QZxGXp_-0" value="Szerkesztés" style="rounded=0;whiteSpace=wrap;html=1;" vertex="1" parent="qWO7SP7HksCYpSg3U8y8-1">
          <mxGeometry x="380" y="100" width="86" height="30" as="geometry" />
        </mxCell>
        <mxCell id="z-UjJyRlYumc9QZxGXp_-1" value="Új" style="rounded=0;whiteSpace=wrap;html=1;" vertex="1" parent="qWO7SP7HksCYpSg3U8y8-1">
          <mxGeometry x="490" y="100" width="86" height="30" as="geometry" />
        </mxCell>
        <mxCell id="z-UjJyRlYumc9QZxGXp_-2" value="Törlés" style="rounded=0;whiteSpace=wrap;html=1;" vertex="1" parent="qWO7SP7HksCYpSg3U8y8-1">
          <mxGeometry x="590" y="100" width="86" height="30" as="geometry" />
        </mxCell>
        <mxCell id="z-UjJyRlYumc9QZxGXp_-3" value="" style="shape=table;startSize=0;container=1;collapsible=0;childLayout=tableLayout;fontSize=11;fillColor=none;strokeColor=none;" vertex="1" parent="qWO7SP7HksCYpSg3U8y8-1">
          <mxGeometry x="270" y="212" width="90" height="180" as="geometry" />
        </mxCell>
        <mxCell id="z-UjJyRlYumc9QZxGXp_-4" value="" style="shape=tableRow;horizontal=0;startSize=0;swimlaneHead=0;swimlaneBody=0;strokeColor=inherit;top=0;left=0;bottom=0;right=0;collapsible=0;dropTarget=0;fillColor=none;points=[[0,0.5],[1,0.5]];portConstraint=eastwest;fontSize=16;" vertex="1" parent="z-UjJyRlYumc9QZxGXp_-3">
          <mxGeometry width="90" height="31" as="geometry" />
        </mxCell>
        <mxCell id="z-UjJyRlYumc9QZxGXp_-5" value="Item 1" style="shape=partialRectangle;html=1;whiteSpace=wrap;connectable=0;strokeColor=inherit;overflow=hidden;fillColor=none;top=0;left=0;bottom=0;right=0;pointerEvents=1;fontSize=12;align=left;spacingLeft=5;" vertex="1" parent="z-UjJyRlYumc9QZxGXp_-4">
          <mxGeometry width="90" height="31" as="geometry">
            <mxRectangle width="90" height="31" as="alternateBounds" />
          </mxGeometry>
        </mxCell>
        <mxCell id="z-UjJyRlYumc9QZxGXp_-6" value="" style="shape=tableRow;horizontal=0;startSize=0;swimlaneHead=0;swimlaneBody=0;strokeColor=inherit;top=0;left=0;bottom=0;right=0;collapsible=0;dropTarget=0;fillColor=none;points=[[0,0.5],[1,0.5]];portConstraint=eastwest;fontSize=16;" vertex="1" parent="z-UjJyRlYumc9QZxGXp_-3">
          <mxGeometry y="31" width="90" height="49" as="geometry" />
        </mxCell>
        <mxCell id="z-UjJyRlYumc9QZxGXp_-7" value="Item 2" style="shape=partialRectangle;html=1;whiteSpace=wrap;connectable=0;strokeColor=inherit;overflow=hidden;fillColor=none;top=0;left=0;bottom=0;right=0;pointerEvents=1;fontSize=12;align=left;spacingLeft=5;" vertex="1" parent="z-UjJyRlYumc9QZxGXp_-6">
          <mxGeometry width="90" height="49" as="geometry">
            <mxRectangle width="90" height="49" as="alternateBounds" />
          </mxGeometry>
        </mxCell>
        <mxCell id="z-UjJyRlYumc9QZxGXp_-8" value="" style="shape=tableRow;horizontal=0;startSize=0;swimlaneHead=0;swimlaneBody=0;strokeColor=inherit;top=0;left=0;bottom=0;right=0;collapsible=0;dropTarget=0;fillColor=none;points=[[0,0.5],[1,0.5]];portConstraint=eastwest;fontSize=16;" vertex="1" parent="z-UjJyRlYumc9QZxGXp_-3">
          <mxGeometry y="80" width="90" height="51" as="geometry" />
        </mxCell>
        <mxCell id="z-UjJyRlYumc9QZxGXp_-9" value="Item 3" style="shape=partialRectangle;html=1;whiteSpace=wrap;connectable=0;strokeColor=inherit;overflow=hidden;fillColor=none;top=0;left=0;bottom=0;right=0;pointerEvents=1;fontSize=12;align=left;spacingLeft=5;" vertex="1" parent="z-UjJyRlYumc9QZxGXp_-8">
          <mxGeometry width="90" height="51" as="geometry">
            <mxRectangle width="90" height="51" as="alternateBounds" />
          </mxGeometry>
        </mxCell>
        <mxCell id="z-UjJyRlYumc9QZxGXp_-10" style="shape=tableRow;horizontal=0;startSize=0;swimlaneHead=0;swimlaneBody=0;strokeColor=inherit;top=0;left=0;bottom=0;right=0;collapsible=0;dropTarget=0;fillColor=none;points=[[0,0.5],[1,0.5]];portConstraint=eastwest;fontSize=16;" vertex="1" parent="z-UjJyRlYumc9QZxGXp_-3">
          <mxGeometry y="131" width="90" height="49" as="geometry" />
        </mxCell>
        <mxCell id="z-UjJyRlYumc9QZxGXp_-11" value="Item 4" style="shape=partialRectangle;html=1;whiteSpace=wrap;connectable=0;strokeColor=inherit;overflow=hidden;fillColor=none;top=0;left=0;bottom=0;right=0;pointerEvents=1;fontSize=12;align=left;spacingLeft=5;" vertex="1" parent="z-UjJyRlYumc9QZxGXp_-10">
          <mxGeometry width="90" height="49" as="geometry">
            <mxRectangle width="90" height="49" as="alternateBounds" />
          </mxGeometry>
        </mxCell>
        <mxCell id="z-UjJyRlYumc9QZxGXp_-12" value="Felszerelések" style="text;html=1;align=center;verticalAlign=middle;whiteSpace=wrap;rounded=0;" vertex="1" parent="qWO7SP7HksCYpSg3U8y8-1">
          <mxGeometry x="270" y="60" width="60" height="30" as="geometry" />
        </mxCell>
        <mxCell id="z-UjJyRlYumc9QZxGXp_-13" value="" style="shape=table;startSize=0;container=1;collapsible=0;childLayout=tableLayout;fontSize=11;fillColor=none;strokeColor=none;" vertex="1" parent="qWO7SP7HksCYpSg3U8y8-1">
          <mxGeometry x="378" y="212" width="90" height="180" as="geometry" />
        </mxCell>
        <mxCell id="z-UjJyRlYumc9QZxGXp_-14" value="" style="shape=tableRow;horizontal=0;startSize=0;swimlaneHead=0;swimlaneBody=0;strokeColor=inherit;top=0;left=0;bottom=0;right=0;collapsible=0;dropTarget=0;fillColor=none;points=[[0,0.5],[1,0.5]];portConstraint=eastwest;fontSize=16;" vertex="1" parent="z-UjJyRlYumc9QZxGXp_-13">
          <mxGeometry width="90" height="31" as="geometry" />
        </mxCell>
        <mxCell id="z-UjJyRlYumc9QZxGXp_-15" value="Item 1" style="shape=partialRectangle;html=1;whiteSpace=wrap;connectable=0;strokeColor=inherit;overflow=hidden;fillColor=none;top=0;left=0;bottom=0;right=0;pointerEvents=1;fontSize=12;align=left;spacingLeft=5;" vertex="1" parent="z-UjJyRlYumc9QZxGXp_-14">
          <mxGeometry width="90" height="31" as="geometry">
            <mxRectangle width="90" height="31" as="alternateBounds" />
          </mxGeometry>
        </mxCell>
        <mxCell id="z-UjJyRlYumc9QZxGXp_-16" value="" style="shape=tableRow;horizontal=0;startSize=0;swimlaneHead=0;swimlaneBody=0;strokeColor=inherit;top=0;left=0;bottom=0;right=0;collapsible=0;dropTarget=0;fillColor=none;points=[[0,0.5],[1,0.5]];portConstraint=eastwest;fontSize=16;" vertex="1" parent="z-UjJyRlYumc9QZxGXp_-13">
          <mxGeometry y="31" width="90" height="49" as="geometry" />
        </mxCell>
        <mxCell id="z-UjJyRlYumc9QZxGXp_-17" value="Item 2" style="shape=partialRectangle;html=1;whiteSpace=wrap;connectable=0;strokeColor=inherit;overflow=hidden;fillColor=none;top=0;left=0;bottom=0;right=0;pointerEvents=1;fontSize=12;align=left;spacingLeft=5;" vertex="1" parent="z-UjJyRlYumc9QZxGXp_-16">
          <mxGeometry width="90" height="49" as="geometry">
            <mxRectangle width="90" height="49" as="alternateBounds" />
          </mxGeometry>
        </mxCell>
        <mxCell id="z-UjJyRlYumc9QZxGXp_-18" value="" style="shape=tableRow;horizontal=0;startSize=0;swimlaneHead=0;swimlaneBody=0;strokeColor=inherit;top=0;left=0;bottom=0;right=0;collapsible=0;dropTarget=0;fillColor=none;points=[[0,0.5],[1,0.5]];portConstraint=eastwest;fontSize=16;" vertex="1" parent="z-UjJyRlYumc9QZxGXp_-13">
          <mxGeometry y="80" width="90" height="51" as="geometry" />
        </mxCell>
        <mxCell id="z-UjJyRlYumc9QZxGXp_-19" value="Item 3" style="shape=partialRectangle;html=1;whiteSpace=wrap;connectable=0;strokeColor=inherit;overflow=hidden;fillColor=none;top=0;left=0;bottom=0;right=0;pointerEvents=1;fontSize=12;align=left;spacingLeft=5;" vertex="1" parent="z-UjJyRlYumc9QZxGXp_-18">
          <mxGeometry width="90" height="51" as="geometry">
            <mxRectangle width="90" height="51" as="alternateBounds" />
          </mxGeometry>
        </mxCell>
        <mxCell id="z-UjJyRlYumc9QZxGXp_-20" style="shape=tableRow;horizontal=0;startSize=0;swimlaneHead=0;swimlaneBody=0;strokeColor=inherit;top=0;left=0;bottom=0;right=0;collapsible=0;dropTarget=0;fillColor=none;points=[[0,0.5],[1,0.5]];portConstraint=eastwest;fontSize=16;" vertex="1" parent="z-UjJyRlYumc9QZxGXp_-13">
          <mxGeometry y="131" width="90" height="49" as="geometry" />
        </mxCell>
        <mxCell id="z-UjJyRlYumc9QZxGXp_-21" value="Item 4" style="shape=partialRectangle;html=1;whiteSpace=wrap;connectable=0;strokeColor=inherit;overflow=hidden;fillColor=none;top=0;left=0;bottom=0;right=0;pointerEvents=1;fontSize=12;align=left;spacingLeft=5;" vertex="1" parent="z-UjJyRlYumc9QZxGXp_-20">
          <mxGeometry width="90" height="49" as="geometry">
            <mxRectangle width="90" height="49" as="alternateBounds" />
          </mxGeometry>
        </mxCell>
        <mxCell id="z-UjJyRlYumc9QZxGXp_-22" value="" style="shape=table;startSize=0;container=1;collapsible=0;childLayout=tableLayout;fontSize=11;fillColor=none;strokeColor=none;" vertex="1" parent="qWO7SP7HksCYpSg3U8y8-1">
          <mxGeometry x="486" y="212" width="90" height="180" as="geometry" />
        </mxCell>
        <mxCell id="z-UjJyRlYumc9QZxGXp_-23" value="" style="shape=tableRow;horizontal=0;startSize=0;swimlaneHead=0;swimlaneBody=0;strokeColor=inherit;top=0;left=0;bottom=0;right=0;collapsible=0;dropTarget=0;fillColor=none;points=[[0,0.5],[1,0.5]];portConstraint=eastwest;fontSize=16;" vertex="1" parent="z-UjJyRlYumc9QZxGXp_-22">
          <mxGeometry width="90" height="31" as="geometry" />
        </mxCell>
        <mxCell id="z-UjJyRlYumc9QZxGXp_-24" value="Item 1" style="shape=partialRectangle;html=1;whiteSpace=wrap;connectable=0;strokeColor=inherit;overflow=hidden;fillColor=none;top=0;left=0;bottom=0;right=0;pointerEvents=1;fontSize=12;align=left;spacingLeft=5;" vertex="1" parent="z-UjJyRlYumc9QZxGXp_-23">
          <mxGeometry width="90" height="31" as="geometry">
            <mxRectangle width="90" height="31" as="alternateBounds" />
          </mxGeometry>
        </mxCell>
        <mxCell id="z-UjJyRlYumc9QZxGXp_-25" value="" style="shape=tableRow;horizontal=0;startSize=0;swimlaneHead=0;swimlaneBody=0;strokeColor=inherit;top=0;left=0;bottom=0;right=0;collapsible=0;dropTarget=0;fillColor=none;points=[[0,0.5],[1,0.5]];portConstraint=eastwest;fontSize=16;" vertex="1" parent="z-UjJyRlYumc9QZxGXp_-22">
          <mxGeometry y="31" width="90" height="49" as="geometry" />
        </mxCell>
        <mxCell id="z-UjJyRlYumc9QZxGXp_-26" value="Item 2" style="shape=partialRectangle;html=1;whiteSpace=wrap;connectable=0;strokeColor=inherit;overflow=hidden;fillColor=none;top=0;left=0;bottom=0;right=0;pointerEvents=1;fontSize=12;align=left;spacingLeft=5;" vertex="1" parent="z-UjJyRlYumc9QZxGXp_-25">
          <mxGeometry width="90" height="49" as="geometry">
            <mxRectangle width="90" height="49" as="alternateBounds" />
          </mxGeometry>
        </mxCell>
        <mxCell id="z-UjJyRlYumc9QZxGXp_-27" value="" style="shape=tableRow;horizontal=0;startSize=0;swimlaneHead=0;swimlaneBody=0;strokeColor=inherit;top=0;left=0;bottom=0;right=0;collapsible=0;dropTarget=0;fillColor=none;points=[[0,0.5],[1,0.5]];portConstraint=eastwest;fontSize=16;" vertex="1" parent="z-UjJyRlYumc9QZxGXp_-22">
          <mxGeometry y="80" width="90" height="51" as="geometry" />
        </mxCell>
        <mxCell id="z-UjJyRlYumc9QZxGXp_-28" value="Item 3" style="shape=partialRectangle;html=1;whiteSpace=wrap;connectable=0;strokeColor=inherit;overflow=hidden;fillColor=none;top=0;left=0;bottom=0;right=0;pointerEvents=1;fontSize=12;align=left;spacingLeft=5;" vertex="1" parent="z-UjJyRlYumc9QZxGXp_-27">
          <mxGeometry width="90" height="51" as="geometry">
            <mxRectangle width="90" height="51" as="alternateBounds" />
          </mxGeometry>
        </mxCell>
        <mxCell id="z-UjJyRlYumc9QZxGXp_-29" style="shape=tableRow;horizontal=0;startSize=0;swimlaneHead=0;swimlaneBody=0;strokeColor=inherit;top=0;left=0;bottom=0;right=0;collapsible=0;dropTarget=0;fillColor=none;points=[[0,0.5],[1,0.5]];portConstraint=eastwest;fontSize=16;" vertex="1" parent="z-UjJyRlYumc9QZxGXp_-22">
          <mxGeometry y="131" width="90" height="49" as="geometry" />
        </mxCell>
        <mxCell id="z-UjJyRlYumc9QZxGXp_-30" value="Item 4" style="shape=partialRectangle;html=1;whiteSpace=wrap;connectable=0;strokeColor=inherit;overflow=hidden;fillColor=none;top=0;left=0;bottom=0;right=0;pointerEvents=1;fontSize=12;align=left;spacingLeft=5;" vertex="1" parent="z-UjJyRlYumc9QZxGXp_-29">
          <mxGeometry width="90" height="49" as="geometry">
            <mxRectangle width="90" height="49" as="alternateBounds" />
          </mxGeometry>
        </mxCell>
        <mxCell id="z-UjJyRlYumc9QZxGXp_-31" value="&amp;lt;kép&amp;gt;" style="whiteSpace=wrap;html=1;aspect=fixed;" vertex="1" parent="qWO7SP7HksCYpSg3U8y8-1">
          <mxGeometry x="611.5" y="193.5" width="43" height="43" as="geometry" />
        </mxCell>
        <mxCell id="z-UjJyRlYumc9QZxGXp_-32" value="&amp;lt;kép&amp;gt;" style="whiteSpace=wrap;html=1;aspect=fixed;" vertex="1" parent="qWO7SP7HksCYpSg3U8y8-1">
          <mxGeometry x="611.5" y="246.5" width="43" height="43" as="geometry" />
        </mxCell>
        <mxCell id="z-UjJyRlYumc9QZxGXp_-33" value="&amp;lt;kép&amp;gt;" style="whiteSpace=wrap;html=1;aspect=fixed;" vertex="1" parent="qWO7SP7HksCYpSg3U8y8-1">
          <mxGeometry x="611.5" y="300" width="43" height="43" as="geometry" />
        </mxCell>
        <mxCell id="z-UjJyRlYumc9QZxGXp_-35" value="&amp;lt;kép&amp;gt;" style="whiteSpace=wrap;html=1;aspect=fixed;" vertex="1" parent="qWO7SP7HksCYpSg3U8y8-1">
          <mxGeometry x="611.5" y="357" width="43" height="43" as="geometry" />
        </mxCell>
        <mxCell id="z-UjJyRlYumc9QZxGXp_-36" value="Felszerelések" style="rounded=0;whiteSpace=wrap;html=1;" vertex="1" parent="qWO7SP7HksCYpSg3U8y8-1">
          <mxGeometry x="110" y="142" width="120" height="28" as="geometry" />
        </mxCell>
        <mxCell id="z-UjJyRlYumc9QZxGXp_-37" value="Felszerelés kateg." style="rounded=0;whiteSpace=wrap;html=1;" vertex="1" parent="qWO7SP7HksCYpSg3U8y8-1">
          <mxGeometry x="110" y="193" width="120" height="28" as="geometry" />
        </mxCell>
        <mxCell id="z-UjJyRlYumc9QZxGXp_-38" value="Felszerelésképek" style="rounded=0;whiteSpace=wrap;html=1;" vertex="1" parent="qWO7SP7HksCYpSg3U8y8-1">
          <mxGeometry x="110" y="246" width="120" height="28" as="geometry" />
        </mxCell>
        <mxCell id="z-UjJyRlYumc9QZxGXp_-39" value="Foglalások" style="rounded=0;whiteSpace=wrap;html=1;" vertex="1" parent="qWO7SP7HksCYpSg3U8y8-1">
          <mxGeometry x="110" y="300" width="120" height="28" as="geometry" />
        </mxCell>
        <mxCell id="z-UjJyRlYumc9QZxGXp_-40" value="Számlák" style="rounded=0;whiteSpace=wrap;html=1;" vertex="1" parent="qWO7SP7HksCYpSg3U8y8-1">
          <mxGeometry x="110" y="350" width="120" height="28" as="geometry" />
        </mxCell>
        <mxCell id="z-UjJyRlYumc9QZxGXp_-41" value="Felhasználók" style="rounded=0;whiteSpace=wrap;html=1;" vertex="1" parent="qWO7SP7HksCYpSg3U8y8-1">
          <mxGeometry x="110" y="400" width="120" height="28" as="geometry" />
        </mxCell>
        <mxCell id="z-UjJyRlYumc9QZxGXp_-42" value="Col1" style="text;html=1;align=center;verticalAlign=middle;whiteSpace=wrap;rounded=0;" vertex="1" parent="qWO7SP7HksCYpSg3U8y8-1">
          <mxGeometry x="260" y="150" width="60" height="30" as="geometry" />
        </mxCell>
        <mxCell id="z-UjJyRlYumc9QZxGXp_-43" value="Col2" style="text;html=1;align=center;verticalAlign=middle;whiteSpace=wrap;rounded=0;" vertex="1" parent="qWO7SP7HksCYpSg3U8y8-1">
          <mxGeometry x="370" y="150" width="60" height="30" as="geometry" />
        </mxCell>
        <mxCell id="z-UjJyRlYumc9QZxGXp_-44" value="Col3" style="text;html=1;align=center;verticalAlign=middle;whiteSpace=wrap;rounded=0;" vertex="1" parent="qWO7SP7HksCYpSg3U8y8-1">
          <mxGeometry x="480" y="150" width="60" height="30" as="geometry" />
        </mxCell>
        <mxCell id="z-UjJyRlYumc9QZxGXp_-45" value="Col4" style="text;html=1;align=center;verticalAlign=middle;whiteSpace=wrap;rounded=0;" vertex="1" parent="qWO7SP7HksCYpSg3U8y8-1">
          <mxGeometry x="603" y="150" width="60" height="30" as="geometry" />
        </mxCell>
        <mxCell id="z-UjJyRlYumc9QZxGXp_-46" value="admin@example.com" style="text;html=1;align=center;verticalAlign=middle;whiteSpace=wrap;rounded=0;" vertex="1" parent="qWO7SP7HksCYpSg3U8y8-1">
          <mxGeometry x="630" y="50" width="60" height="30" as="geometry" />
        </mxCell>
      </root>
    </mxGraphModel>
  </diagram>
</mxfile>
